<?xml version="1.0" encoding="UTF-8" standalone="no"?>
<!-- Created with Inkscape (http://www.inkscape.org/) -->

<svg
   width="32"
   height="32"
   viewBox="0 0 8.4666666 8.4666666"
   version="1.1"
   id="svg914"
   inkscape:export-filename="UpRight.png"
   inkscape:export-xdpi="96"
   inkscape:export-ydpi="96"
   inkscape:version="1.2.2 (b0a8486541, 2022-12-01)"
   sodipodi:docname="drawing.svg"
   xmlns:inkscape="http://www.inkscape.org/namespaces/inkscape"
   xmlns:sodipodi="http://sodipodi.sourceforge.net/DTD/sodipodi-0.dtd"
   xmlns="http://www.w3.org/2000/svg"
   xmlns:svg="http://www.w3.org/2000/svg">
  <sodipodi:namedview
     id="namedview916"
     pagecolor="#505050"
     bordercolor="#eeeeee"
     borderopacity="1"
     inkscape:showpageshadow="0"
     inkscape:pageopacity="0"
     inkscape:pagecheckerboard="0"
     inkscape:deskcolor="#505050"
     inkscape:document-units="px"
     showgrid="false"
     inkscape:zoom="12.890625"
     inkscape:cx="21.837576"
     inkscape:cy="14.855758"
     inkscape:window-width="1920"
     inkscape:window-height="1011"
     inkscape:window-x="0"
     inkscape:window-y="32"
     inkscape:window-maximized="1"
     inkscape:current-layer="layer1" />
  <defs
     id="defs911">
    <inkscape:path-effect
       effect="fillet_chamfer"
       id="path-effect7627"
       is_visible="true"
       lpeversion="1"
       nodesatellites_param="F,0,0,1,0,0,0,1 @ F,0,0,1,0,0,0,1 @ F,0,1,1,0,0.37234454,0,1 @ F,0,0,1,0,0.37234454,0,1"
       unit="px"
       method="auto"
       mode="F"
       radius="0"
       chamfer_steps="1"
       flexible="false"
       use_knot_distance="true"
       apply_no_radius="true"
       apply_with_radius="true"
       only_selected="false"
       hide_knots="false" />
    <inkscape:path-effect
       effect="fillet_chamfer"
       id="path-effect7620"
       is_visible="true"
       lpeversion="1"
       nodesatellites_param="F,0,0,1,0,0,0,1 @ F,0,0,1,0,0,0,1 @ F,0,0,1,0,0,0,1 @ F,0,0,1,0,0,0,1"
       unit="px"
       method="auto"
       mode="F"
       radius="0"
       chamfer_steps="1"
       flexible="false"
       use_knot_distance="true"
       apply_no_radius="true"
       apply_with_radius="true"
       only_selected="false"
       hide_knots="false" />
    <inkscape:path-effect
       effect="fillet_chamfer"
       id="path-effect7522"
       is_visible="true"
       lpeversion="1"
       nodesatellites_param="F,0,1,1,0,0.63160797,0,1 @ F,0,1,1,0,0.63160797,0,1 @ F,0,1,1,0,0.63160797,0,1 @ F,0,1,1,0,0.63160797,0,1 @ F,0,1,1,0,0.63160797,0,1 @ F,0,1,1,0,0.63160797,0,1"
       unit="px"
       method="auto"
       mode="F"
       radius="0"
       chamfer_steps="1"
       flexible="false"
       use_knot_distance="true"
       apply_no_radius="true"
       apply_with_radius="true"
       only_selected="false"
       hide_knots="false" />
  </defs>
  <g
     inkscape:label="Layer 1"
     inkscape:groupmode="layer"
     id="layer1">
    <g
       id="g7637"
       transform="translate(-7.8867512e-8,-0.18232938)"
       inkscape:tile-cx="4.2333334"
       inkscape:tile-cy="4.2333333"
       inkscape:tile-w="4.2469958"
       inkscape:tile-h="8.102007"
       inkscape:tile-x0="2.1098354"
       inkscape:tile-y0="0.18232979"
       style="display:none">
      <path
         id="rect6593"
         style="fill:#508e31;stroke-width:2.64584;stop-color:#000000"
         d="M 3.557848,2.7939758 H 4.9088182 V 8.0943217 A 0.37234454,0.37234454 135 0 1 4.5364737,8.4666662 H 3.9301925 A 0.37234454,0.37234454 45 0 1 3.557848,8.0943217 Z"
         inkscape:original-d="M 3.557848,2.7939758 H 4.9088182 V 8.4666662 H 3.557848 Z"
         inkscape:path-effect="#path-effect7627" />
      <path
         id="path6647"
         style="fill:#508e31;fill-opacity:1;stroke-width:2.64583;stop-color:#000000"
         inkscape:transform-center-y="-1.3913065"
         d="M 5.9921722,4.1403756 H 4.8649414 l -2.3904469,-10e-8 A 0.36465904,0.36465904 60.000002 0 1 2.1586905,3.593387 L 2.7223059,2.6171764 3.9175294,0.54698868 a 0.36465904,0.36465904 4.3865669e-7 0 1 0.631608,1e-8 L 5.1127528,1.5231993 6.3079762,3.593387 a 0.36465904,0.36465904 120 0 1 -0.315804,0.5469886 z"
         sodipodi:nodetypes="ccccccc"
         inkscape:original-d="M 6.6237802,4.1403756 H 4.2333334 L 1.8428865,4.1403755 3.0381099,2.0701879 4.2333334,1.4127958e-7 5.4285568,2.0701878 Z"
         inkscape:path-effect="#path-effect7522" />
    </g>
    <g
       id="use7970"
       transform="translate(-7.8867512e-8,-0.18232938)"
       inkscape:tile-x0="2.1098354"
       inkscape:tile-y0="0.18232979"
       style="display:none">
      <path
         id="path7986"
         style="fill:#508e31;stroke-width:2.64584;stop-color:#000000"
         d="M 3.557848,2.7939758 H 4.9088182 V 8.0943217 A 0.37234454,0.37234454 135 0 1 4.5364737,8.4666662 H 3.9301925 A 0.37234454,0.37234454 45 0 1 3.557848,8.0943217 Z"
         inkscape:original-d="M 3.557848,2.7939758 H 4.9088182 V 8.4666662 H 3.557848 Z"
         inkscape:path-effect="#path-effect7627" />
      <path
         id="path7988"
         style="fill:#508e31;fill-opacity:1;stroke-width:2.64583;stop-color:#000000"
         inkscape:transform-center-y="-1.3913065"
         d="M 5.9921722,4.1403756 H 4.8649414 l -2.3904469,-10e-8 A 0.36465904,0.36465904 60.000002 0 1 2.1586905,3.593387 L 2.7223059,2.6171764 3.9175294,0.54698868 a 0.36465904,0.36465904 4.3865669e-7 0 1 0.631608,1e-8 L 5.1127528,1.5231993 6.3079762,3.593387 a 0.36465904,0.36465904 120 0 1 -0.315804,0.5469886 z"
         sodipodi:nodetypes="ccccccc"
         inkscape:original-d="M 6.6237802,4.1403756 H 4.2333334 L 1.8428865,4.1403755 3.0381099,2.0701879 4.2333334,1.4127958e-7 5.4285568,2.0701878 Z"
         inkscape:path-effect="#path-effect7522" />
    </g>
    <g
       id="use7972"
       transform="rotate(45,4.6383072,4.4010791)"
       inkscape:tile-x0="2.1098354"
       inkscape:tile-y0="0.18232979"
       style="display:none">
      <path
         id="path8034"
         style="fill:#508e31;stroke-width:2.64584;stop-color:#000000"
         d="M 3.557848,2.7939758 H 4.9088182 V 8.0943217 A 0.37234454,0.37234454 135 0 1 4.5364737,8.4666662 H 3.9301925 A 0.37234454,0.37234454 45 0 1 3.557848,8.0943217 Z"
         inkscape:original-d="M 3.557848,2.7939758 H 4.9088182 V 8.4666662 H 3.557848 Z"
         inkscape:path-effect="#path-effect7627" />
      <path
         id="path8036"
         style="fill:#508e31;fill-opacity:1;stroke-width:2.64583;stop-color:#000000"
         inkscape:transform-center-y="-1.3913065"
         d="M 5.9921722,4.1403756 H 4.8649414 l -2.3904469,-10e-8 A 0.36465904,0.36465904 60.000002 0 1 2.1586905,3.593387 L 2.7223059,2.6171764 3.9175294,0.54698868 a 0.36465904,0.36465904 4.3865669e-7 0 1 0.631608,1e-8 L 5.1127528,1.5231993 6.3079762,3.593387 a 0.36465904,0.36465904 120 0 1 -0.315804,0.5469886 z"
         sodipodi:nodetypes="ccccccc"
         inkscape:original-d="M 6.6237802,4.1403756 H 4.2333334 L 1.8428865,4.1403755 3.0381099,2.0701879 4.2333334,1.4127958e-7 5.4285568,2.0701878 Z"
         inkscape:path-effect="#path-effect7522" />
    </g>
    <g
       id="use7974"
       transform="rotate(90,4.324498,4.3244979)"
       inkscape:tile-x0="2.1098354"
       inkscape:tile-y0="0.18232979"
       style="display:inline">
      <path
         id="path8040"
         style="fill:#508e31;stroke-width:2.64584;stop-color:#000000"
         d="M 3.557848,2.7939758 H 4.9088182 V 8.0943217 A 0.37234454,0.37234454 135 0 1 4.5364737,8.4666662 H 3.9301925 A 0.37234454,0.37234454 45 0 1 3.557848,8.0943217 Z"
         inkscape:original-d="M 3.557848,2.7939758 H 4.9088182 V 8.4666662 H 3.557848 Z"
         inkscape:path-effect="#path-effect7627" />
      <path
         id="path8042"
         style="fill:#508e31;fill-opacity:1;stroke-width:2.64583;stop-color:#000000"
         inkscape:transform-center-y="-1.3913065"
         d="M 5.9921722,4.1403756 H 4.8649414 l -2.3904469,-10e-8 A 0.36465904,0.36465904 60.000002 0 1 2.1586905,3.593387 L 2.7223059,2.6171764 3.9175294,0.54698868 a 0.36465904,0.36465904 4.3865669e-7 0 1 0.631608,1e-8 L 5.1127528,1.5231993 6.3079762,3.593387 a 0.36465904,0.36465904 120 0 1 -0.315804,0.5469886 z"
         sodipodi:nodetypes="ccccccc"
         inkscape:original-d="M 6.6237802,4.1403756 H 4.2333334 L 1.8428865,4.1403755 3.0381099,2.0701879 4.2333334,1.4127958e-7 5.4285568,2.0701878 Z"
         inkscape:path-effect="#path-effect7522" />
    </g>
    <g
       id="use7976"
       transform="rotate(135,4.3028158,4.401079)"
       inkscape:tile-x0="2.1098354"
       inkscape:tile-y0="0.18232979"
       style="display:none">
      <path
         id="path8046"
         style="fill:#508e31;stroke-width:2.64584;stop-color:#000000"
         d="M 3.557848,2.7939758 H 4.9088182 V 8.0943217 A 0.37234454,0.37234454 135 0 1 4.5364737,8.4666662 H 3.9301925 A 0.37234454,0.37234454 45 0 1 3.557848,8.0943217 Z"
         inkscape:original-d="M 3.557848,2.7939758 H 4.9088182 V 8.4666662 H 3.557848 Z"
         inkscape:path-effect="#path-effect7627" />
      <path
         id="path8048"
         style="fill:#508e31;fill-opacity:1;stroke-width:2.64583;stop-color:#000000"
         inkscape:transform-center-y="-1.3913065"
         d="M 5.9921722,4.1403756 H 4.8649414 l -2.3904469,-10e-8 A 0.36465904,0.36465904 60.000002 0 1 2.1586905,3.593387 L 2.7223059,2.6171764 3.9175294,0.54698868 a 0.36465904,0.36465904 4.3865669e-7 0 1 0.631608,1e-8 L 5.1127528,1.5231993 6.3079762,3.593387 a 0.36465904,0.36465904 120 0 1 -0.315804,0.5469886 z"
         sodipodi:nodetypes="ccccccc"
         inkscape:original-d="M 6.6237802,4.1403756 H 4.2333334 L 1.8428865,4.1403755 3.0381099,2.0701879 4.2333334,1.4127958e-7 5.4285568,2.0701878 Z"
         inkscape:path-effect="#path-effect7522" />
    </g>
    <g
       id="use7978"
       transform="rotate(180,4.2333333,4.324498)"
       inkscape:tile-x0="2.1098354"
       inkscape:tile-y0="0.18232979"
       style="display:none">
      <path
         id="path8052"
         style="fill:#508e31;stroke-width:2.64584;stop-color:#000000"
         d="M 3.557848,2.7939758 H 4.9088182 V 8.0943217 A 0.37234454,0.37234454 135 0 1 4.5364737,8.4666662 H 3.9301925 A 0.37234454,0.37234454 45 0 1 3.557848,8.0943217 Z"
         inkscape:original-d="M 3.557848,2.7939758 H 4.9088182 V 8.4666662 H 3.557848 Z"
         inkscape:path-effect="#path-effect7627" />
      <path
         id="path8054"
         style="fill:#508e31;fill-opacity:1;stroke-width:2.64583;stop-color:#000000"
         inkscape:transform-center-y="-1.3913065"
         d="M 5.9921722,4.1403756 H 4.8649414 l -2.3904469,-10e-8 A 0.36465904,0.36465904 60.000002 0 1 2.1586905,3.593387 L 2.7223059,2.6171764 3.9175294,0.54698868 a 0.36465904,0.36465904 4.3865669e-7 0 1 0.631608,1e-8 L 5.1127528,1.5231993 6.3079762,3.593387 a 0.36465904,0.36465904 120 0 1 -0.315804,0.5469886 z"
         sodipodi:nodetypes="ccccccc"
         inkscape:original-d="M 6.6237802,4.1403756 H 4.2333334 L 1.8428865,4.1403755 3.0381099,2.0701879 4.2333334,1.4127958e-7 5.4285568,2.0701878 Z"
         inkscape:path-effect="#path-effect7522" />
    </g>
    <g
       id="use7980"
       transform="rotate(-135,4.1638508,4.401079)"
       inkscape:tile-x0="2.1098354"
       inkscape:tile-y0="0.18232979"
       style="display:none">
      <path
         id="path8058"
         style="fill:#508e31;stroke-width:2.64584;stop-color:#000000"
         d="M 3.557848,2.7939758 H 4.9088182 V 8.0943217 A 0.37234454,0.37234454 135 0 1 4.5364737,8.4666662 H 3.9301925 A 0.37234454,0.37234454 45 0 1 3.557848,8.0943217 Z"
         inkscape:original-d="M 3.557848,2.7939758 H 4.9088182 V 8.4666662 H 3.557848 Z"
         inkscape:path-effect="#path-effect7627" />
      <path
         id="path8060"
         style="fill:#508e31;fill-opacity:1;stroke-width:2.64583;stop-color:#000000"
         inkscape:transform-center-y="-1.3913065"
         d="M 5.9921722,4.1403756 H 4.8649414 l -2.3904469,-10e-8 A 0.36465904,0.36465904 60.000002 0 1 2.1586905,3.593387 L 2.7223059,2.6171764 3.9175294,0.54698868 a 0.36465904,0.36465904 4.3865669e-7 0 1 0.631608,1e-8 L 5.1127528,1.5231993 6.3079762,3.593387 a 0.36465904,0.36465904 120 0 1 -0.315804,0.5469886 z"
         sodipodi:nodetypes="ccccccc"
         inkscape:original-d="M 6.6237802,4.1403756 H 4.2333334 L 1.8428865,4.1403755 3.0381099,2.0701879 4.2333334,1.4127958e-7 5.4285568,2.0701878 Z"
         inkscape:path-effect="#path-effect7522" />
    </g>
    <g
       id="use7982"
       transform="rotate(-90,4.1421687,4.324498)"
       inkscape:tile-x0="2.1098354"
       inkscape:tile-y0="0.18232979"
       style="display:none">
      <path
         id="path8064"
         style="fill:#508e31;stroke-width:2.64584;stop-color:#000000"
         d="M 3.557848,2.7939758 H 4.9088182 V 8.0943217 A 0.37234454,0.37234454 135 0 1 4.5364737,8.4666662 H 3.9301925 A 0.37234454,0.37234454 45 0 1 3.557848,8.0943217 Z"
         inkscape:original-d="M 3.557848,2.7939758 H 4.9088182 V 8.4666662 H 3.557848 Z"
         inkscape:path-effect="#path-effect7627" />
      <path
         id="path8066"
         style="fill:#508e31;fill-opacity:1;stroke-width:2.64583;stop-color:#000000"
         inkscape:transform-center-y="-1.3913065"
         d="M 5.9921722,4.1403756 H 4.8649414 l -2.3904469,-10e-8 A 0.36465904,0.36465904 60.000002 0 1 2.1586905,3.593387 L 2.7223059,2.6171764 3.9175294,0.54698868 a 0.36465904,0.36465904 4.3865669e-7 0 1 0.631608,1e-8 L 5.1127528,1.5231993 6.3079762,3.593387 a 0.36465904,0.36465904 120 0 1 -0.315804,0.5469886 z"
         sodipodi:nodetypes="ccccccc"
         inkscape:original-d="M 6.6237802,4.1403756 H 4.2333334 L 1.8428865,4.1403755 3.0381099,2.0701879 4.2333334,1.4127958e-7 5.4285568,2.0701878 Z"
         inkscape:path-effect="#path-effect7522" />
    </g>
    <g
       id="use7984"
       transform="rotate(-45,3.8283594,4.4010789)"
       inkscape:tile-x0="2.1098354"
       inkscape:tile-y0="0.18232979"
       style="display:none">
      <path
         id="path8070"
         style="fill:#508e31;stroke-width:2.64584;stop-color:#000000"
         d="M 3.557848,2.7939758 H 4.9088182 V 8.0943217 A 0.37234454,0.37234454 135 0 1 4.5364737,8.4666662 H 3.9301925 A 0.37234454,0.37234454 45 0 1 3.557848,8.0943217 Z"
         inkscape:original-d="M 3.557848,2.7939758 H 4.9088182 V 8.4666662 H 3.557848 Z"
         inkscape:path-effect="#path-effect7627" />
      <path
         id="path8072"
         style="fill:#508e31;fill-opacity:1;stroke-width:2.64583;stop-color:#000000"
         inkscape:transform-center-y="-1.3913065"
         d="M 5.9921722,4.1403756 H 4.8649414 l -2.3904469,-10e-8 A 0.36465904,0.36465904 60.000002 0 1 2.1586905,3.593387 L 2.7223059,2.6171764 3.9175294,0.54698868 a 0.36465904,0.36465904 4.3865669e-7 0 1 0.631608,1e-8 L 5.1127528,1.5231993 6.3079762,3.593387 a 0.36465904,0.36465904 120 0 1 -0.315804,0.5469886 z"
         sodipodi:nodetypes="ccccccc"
         inkscape:original-d="M 6.6237802,4.1403756 H 4.2333334 L 1.8428865,4.1403755 3.0381099,2.0701879 4.2333334,1.4127958e-7 5.4285568,2.0701878 Z"
         inkscape:path-effect="#path-effect7522" />
    </g>
  </g>
</svg>
